<svg version="1.2" baseProfile="tiny" xmlns="http://www.w3.org/2000/svg" width="1024" height="1024" viewBox="0 0 1024 1024"><path fill="#1693A5" d="M732.992 319.733c0-55-45-100-100-100H303.568l-12.559.001v618.967l341.057-.002c54.967-.042 99.924-45.024 99.924-99.999v-37.93a99.834 99.834 0 0 0 1.002-14.064V319.733zM610.492 810.2H319.51v-23.495h313.482c22.439 0 43.215-7.493 59.947-20.099-18.066 26.276-48.33 43.594-82.447 43.594z"/><path fill="#116E7C" d="M420.896 798.368v74.985c0 2.283-1.42 4.363-3.652 5.226-.709.304-1.471.405-2.232.405a6.174 6.174 0 0 1-4.211-1.623l-22.373-21.511-22.371 21.511c-1.168 1.065-2.639 1.674-4.211 1.674a5.683 5.683 0 0 1-2.234-.456c-2.23-.862-3.652-2.942-3.652-5.226v-74.985h64.936z"/><path fill="#FFF" d="M414.283 357.379c17.973 0 47.277 6.066 49.135 61.95 10.719 14.929 26.994 28.745 46.268 38.563 33.832 5.714 72.088 6.776 111.889 3.114-4.246 11.604-44.436 39.874-43.711 40.385 18.354 13.091 63.578 22.361 63.578 22.361s-31.09 13.515-59.846 14.399c.07.071.178.105.178.176-98.242 1.592-138.045-34.034-141.504-55.722-1.973-11.641 5.494-20.291 19.77-22.573 10.154-1.662 6.801-16.451-2.529-14.859-22.424 3.945-35.381 19.919-32.062 39.803 5.289 32.833 54.697 72.954 167.346 68.071 25.572 8.314 43.121 7.854 59.227 6.652-19.768 23.031-36.494 32.301-51.592 37.183 2.805 23.031 3.768 49.816 2.805 59.562-20.732-30.408-68.012-77.782-88.807-88.732-.973 29.17 8.57 68.07 19.902 81.408-27.367-6.12-39.775-14.595-51.072-29.207-7.393 8.812-28.506 29.757-51 23.087 14.162-25.456 22.697-53.459 21.697-88.696-23.562-4.83-63.232-26.749-62.34-108.158.486-32.85-23.42-42.332-35.654-55.741 18.865-10.88 40.49-33.026 58.322-33.026"/></svg>