<svg version="1.2" baseProfile="tiny" xmlns="http://www.w3.org/2000/svg" width="1024" height="1024" viewBox="0 0 1024 1024">
  <path fill="#FFF" d="M197.701 78.089h489.115c37.098 0 72.08 14.553 98.506 40.978 26.425 26.425 40.978 61.409 40.978 98.507l-.001 530.219a139.753 139.753 0 0 1-1.396 19.613l-.051.352v55.159c0 76.852-62.524 139.424-139.379 139.483l-487.771.003-.001-884.314z"/>
  <path fill="#333" d="M686.816 73.089H210.847l-18.146.001v894.313l492.774-.003c79.421-.062 144.376-65.056 144.376-144.483v-54.804a144.064 144.064 0 0 0 1.446-20.32V217.574h.001c.002-79.467-65.017-144.485-144.482-144.485zM370.814 271.966c25.968 0 68.307 8.765 70.992 89.508 15.487 21.569 39.002 41.532 66.852 55.719 48.882 8.257 104.158 9.791 161.664 4.5-6.137 16.767-64.204 57.61-63.155 58.35 26.518 18.916 91.86 32.309 91.86 32.309s-44.923 19.526-86.472 20.807c.104.102.261.149.261.254-141.945 2.3-199.456-49.174-204.453-80.509-2.853-16.821 7.938-29.318 28.563-32.615 14.671-2.401 9.826-23.771-3.654-21.469-32.398 5.698-51.121 28.778-46.323 57.509 7.642 47.438 79.027 105.408 241.789 98.352 36.946 12.016 62.303 11.351 85.571 9.612-28.562 33.276-52.728 46.67-74.542 53.723 4.056 33.277 5.444 71.979 4.056 86.062-29.955-43.938-98.271-112.384-128.313-128.205-1.403 42.146 12.383 98.351 28.756 117.622-39.542-8.843-57.47-21.087-73.792-42.199-10.681 12.731-41.187 42.994-73.687 33.356 20.462-36.78 32.794-77.24 31.349-128.152-34.044-6.979-91.36-38.648-90.072-156.271.702-47.466-33.839-61.164-51.515-80.538 27.256-15.727 58.5-47.725 84.265-47.725zm283.492 654.258H233.881v-33.945h452.937c32.42 0 62.438-10.826 86.612-29.039-26.104 37.961-69.83 62.984-119.124 62.984z"/>
  <path fill="#111" d="M380.369 909.128v108.341c0 3.299-2.053 6.307-5.277 7.553-1.024.438-2.125.587-3.225.587a8.915 8.915 0 0 1-6.084-2.347l-32.326-31.082-32.322 31.082c-1.688 1.537-3.813 2.418-6.084 2.418a8.23 8.23 0 0 1-3.228-.657c-3.222-1.246-5.276-4.252-5.276-7.552V909.128h93.822z"/>
</svg>