<?xml version="1.0" encoding="utf-8"?>
<!-- Generator: Adobe Illustrator 16.0.0, SVG Export Plug-In . SVG Version: 6.00 Build 0)  -->
<svg version="1.2" baseProfile="tiny" id="Layer_1" xmlns="http://www.w3.org/2000/svg" xmlns:xlink="http://www.w3.org/1999/xlink"
	 x="0px" y="0px" width="720px" height="540px" viewBox="0 0 720 540" xml:space="preserve">
<rect x="158.498" y="136.63" fill-rule="evenodd" fill="#FFFFFF" stroke="#333333" stroke-width="2" stroke-miterlimit="10" width="69.75" height="59.875"/>
<polygon fill-rule="evenodd" fill="#FFFFFF" stroke="#333333" stroke-width="2" stroke-miterlimit="10" points="335.998,171.125 
	380.498,136.625 424.998,171.125 380.498,205.625 "/>
<polygon fill="#65C8D0" stroke="#333333" stroke-width="2" stroke-miterlimit="10" points="335.998,171.125 380.498,136.625 
	424.998,171.125 380.498,205.625 "/>
<text transform="matrix(1 0 0 1 349.1074 177.895)" fill="#333333" font-family="'ArialMT'" font-size="18">Stars</text>
<text transform="matrix(1 0 0 1 391.1367 177.895)" fill="#333333" font-family="'ArialMT'" font-size="18">-</text>
<text transform="matrix(1 0 0 1 397.1367 177.895)" fill="#333333" font-family="'ArialMT'" font-size="18">I</text>
<text transform="matrix(1 0 0 1 402.1738 177.895)" fill="#333333" font-family="'ArialMT'" font-size="18">n</text>
<line fill="#FFFFFF" stroke="#333333" stroke-width="2" stroke-linejoin="round" stroke-miterlimit="10" x1="335.998" y1="171.005" x2="228.248" y2="171.005"/>
<rect x="526.248" y="136.63" fill-rule="evenodd" fill="#FFFFFF" stroke="#333333" stroke-width="2" stroke-miterlimit="10" width="69.75" height="60.125"/>
<rect x="526.248" y="136.63" fill="#BA9BC9" stroke="#333333" stroke-width="2" stroke-miterlimit="8" width="69.75" height="60.125"/>
<text transform="matrix(1 0 0 1 540.1973 173.4551)" fill="#333333" font-family="'ArialMT'" font-size="18">Stars</text>
<line fill="#FFFFFF" stroke="#333333" stroke-width="2" stroke-linejoin="round" stroke-miterlimit="8" x1="424.748" y1="171.755" x2="526.248" y2="171.755"/>
<line fill="#FFFFFF" stroke="#333333" stroke-width="2" stroke-linejoin="round" stroke-miterlimit="8" x1="190.998" y1="136.995" x2="240.127" y2="115.245"/>
<line fill="#FFFFFF" stroke="#333333" stroke-width="2" stroke-linejoin="round" stroke-miterlimit="8" x1="301.377" y1="111.125" x2="202.627" y2="143.332"/>
<line fill="#FFFFFF" stroke="#333333" stroke-width="2" stroke-linejoin="round" stroke-miterlimit="8" x1="105.334" y1="108" x2="171.248" y2="136.625"/>
<line fill="#FFFFFF" stroke="#333333" stroke-width="2" stroke-linejoin="round" stroke-miterlimit="8" x1="173.438" y1="95.63" x2="179.248" y2="136.625"/>
<polygon fill-rule="evenodd" fill="#FFFFFF" stroke="#333333" stroke-width="2" stroke-miterlimit="10" points="150.248,269.005 
	194.627,234.505 238.998,269.005 194.627,303.505 "/>
<polygon fill="#65C8D0" stroke="#333333" stroke-width="2" stroke-miterlimit="8" points="150.248,269.005 194.627,234.505 
	238.998,269.005 194.627,303.505 "/>
<text transform="matrix(1 0 0 1 171.8975 275.7949)" fill="#333333" font-family="'ArialMT'" font-size="18">O</text>
<text transform="matrix(1 0 0 1 185.9346 275.7949)" fill="#333333" font-family="'ArialMT'" font-size="18">w</text>
<text transform="matrix(1 0 0 1 198.5557 275.7949)" fill="#333333" font-family="'ArialMT'" font-size="18">n</text>
<text transform="matrix(1 0 0 1 208.5664 275.7949)" fill="#333333" font-family="'ArialMT'" font-size="18">s</text>
<line fill="#FFFFFF" stroke="#333333" stroke-width="2" stroke-linejoin="round" stroke-miterlimit="8" x1="194.248" y1="235.375" x2="194.377" y2="195.875"/>
<path fill="#FFFFFF" stroke="#333333" stroke-width="2" stroke-linejoin="round" stroke-miterlimit="8" d="M485.877,95.63
	c0-11.15,14.461-20.19,32.311-20.19c17.84,0,32.311,9.04,32.311,20.19s-14.471,20.19-32.311,20.19
	C500.338,115.82,485.877,106.78,485.877,95.63z"/>
<text transform="matrix(1 0 0 1 500.7168 101.7651)" fill="#333333" font-family="'ArialMT'" font-size="14.064">n</text>
<text transform="matrix(1 0 0 1 508.5391 101.7651)" fill="#333333" font-family="'ArialMT'" font-size="14.064">a</text>
<text transform="matrix(1 0 0 1 516.3613 101.7651)" fill="#333333" font-family="'ArialMT'" font-size="14.064">m</text>
<text transform="matrix(1 0 0 1 527.9629 101.7651)" fill="#333333" font-family="'ArialMT'" font-size="14.064">e</text>
<line fill="#FFFFFF" stroke="#333333" stroke-width="2" stroke-linejoin="round" stroke-miterlimit="8" x1="526.248" y1="114.255" x2="545.248" y2="136.625"/>
<line fill="#FFFFFF" stroke="#333333" stroke-width="2" stroke-linejoin="round" stroke-miterlimit="8" x1="615.335" y1="103.565" x2="570.627" y2="136.625"/>
<rect x="160.498" y="335.625" fill-rule="evenodd" fill="#FFFFFF" stroke="#333333" stroke-width="2" stroke-miterlimit="10" width="69.75" height="59.75"/>
<rect x="160.498" y="335.625" fill="#BA9BC9" stroke="#333333" stroke-width="2" stroke-miterlimit="8" width="69.75" height="59.75"/>
<text transform="matrix(1 0 0 1 165.4878 372.3154)" fill="#333333" font-family="'ArialMT'" font-size="18">Studios</text>
<path fill="#FFFFFF" stroke="#333333" stroke-width="2" stroke-linejoin="round" stroke-miterlimit="8" d="M260.627,365.185
	c0-11.149,14.43-20.189,32.25-20.189c17.81,0,32.25,9.04,32.25,20.189c0,11.15-14.44,20.19-32.25,20.19
	C275.058,385.375,260.627,376.335,260.627,365.185z"/>
<text transform="matrix(1 0 0 1 275.4277 370.4453)" fill="#333333" font-family="'ArialMT'" font-size="14.04">n</text>
<text transform="matrix(1 0 0 1 283.2363 370.4453)" fill="#333333" font-family="'ArialMT'" font-size="14.04">a</text>
<text transform="matrix(1 0 0 1 291.0444 370.4453)" fill="#333333" font-family="'ArialMT'" font-size="14.04">m</text>
<text transform="matrix(1 0 0 1 302.6699 370.4453)" fill="#333333" font-family="'ArialMT'" font-size="14.04">e</text>
<ellipse fill="#FFFFFF" stroke="#333333" stroke-width="2" stroke-linejoin="round" stroke-miterlimit="8" cx="192.748" cy="445.438" rx="32.25" ry="20.188"/>
<text transform="matrix(1 0 0 1 167.8374 450.7266)" fill="#333333" font-family="'ArialMT'" font-size="14.064">a</text>
<text transform="matrix(1 0 0 1 175.6592 450.7266)" fill="#333333" font-family="'ArialMT'" font-size="14.064">d</text>
<text transform="matrix(1 0 0 1 183.481 450.7266)" fill="#333333" font-family="'ArialMT'" font-size="14.064">d</text>
<text transform="matrix(1 0 0 1 191.2461 450.7266)" fill="#333333" font-family="'ArialMT'" font-size="14.064">r</text>
<text transform="matrix(1 0 0 1 195.9297 450.7266)" fill="#333333" font-family="'ArialMT'" font-size="14.064">e</text>
<text transform="matrix(1 0 0 1 203.7515 450.7266)" fill="#333333" font-family="'ArialMT'" font-size="14.064">s</text>
<text transform="matrix(1 0 0 1 210.7832 450.7266)" fill="#333333" font-family="'ArialMT'" font-size="14.064">s</text>
<line fill="#FFFFFF" stroke="#333333" stroke-width="2" stroke-linejoin="round" stroke-miterlimit="8" x1="192.127" y1="425.25" x2="192.127" y2="395.375"/>
<line fill="#FFFFFF" stroke="#333333" stroke-width="2" stroke-linejoin="round" stroke-miterlimit="8" x1="230.377" y1="366.745" x2="260.627" y2="366.755"/>
<path fill="#FFFFFF" stroke="#333333" stroke-width="2" stroke-linejoin="round" stroke-miterlimit="8" d="M213.127,95.625
	c0-11.11,14.46-20.12,32.31-20.12c17.84,0,32.31,9.01,32.31,20.12s-14.47,20.13-32.31,20.13
	C227.587,115.755,213.127,106.735,213.127,95.625z"/>
<text transform="matrix(1 0 0 1 226.3774 99.8252)" fill="#333333" font-family="'ArialMT'" font-size="14.04">length</text>
<path fill="#FFFFFF" stroke="#333333" stroke-width="2" stroke-linejoin="round" stroke-miterlimit="8" d="M286.377,95.635
	c0-11.12,14.46-20.13,32.31-20.13c17.84,0,32.31,9.01,32.31,20.13c0,11.11-14.47,20.12-32.31,20.12
	C300.837,115.755,286.377,106.745,286.377,95.635z"/>
<text transform="matrix(1 0 0 1 292.6577 99.7051)" fill="#333333" font-family="'ArialMT'" font-size="14.04">f</text>
<text transform="matrix(1 0 0 1 296.6006 99.7051)" fill="#333333" font-family="'ArialMT'" font-size="14.04">i</text>
<text transform="matrix(1 0 0 1 299.7197 99.7051)" fill="#333333" font-family="'ArialMT'" font-size="14.04">l</text>
<text transform="matrix(1 0 0 1 302.8389 99.7051)" fill="#333333" font-family="'ArialMT'" font-size="14.04">m</text>
<text transform="matrix(1 0 0 1 314.4922 99.7051)" fill="#333333" font-family="'ArialMT'" font-size="14.04">T</text>
<text transform="matrix(1 0 0 1 322.3105 99.7051)" fill="#333333" font-family="'ArialMT'" font-size="14.04">y</text>
<text transform="matrix(1 0 0 1 329.1621 99.7051)" fill="#333333" font-family="'ArialMT'" font-size="14.04">p</text>
<text transform="matrix(1 0 0 1 336.9702 99.7051)" fill="#333333" font-family="'ArialMT'" font-size="14.04">e</text>
<path fill="#FFFFFF" stroke="#333333" stroke-width="2" stroke-linejoin="round" stroke-miterlimit="8" d="M66.873,95.625
	c0-11.11,14.467-20.12,32.313-20.12c17.842,0,32.312,9.01,32.312,20.12s-14.47,20.13-32.312,20.13
	C81.339,115.755,66.873,106.735,66.873,95.625z"/>
<text transform="matrix(1 0 0 1 88.1338 103.5649)" fill="#333333" font-family="'ArialMT'" font-size="14.04">t</text>
<text transform="matrix(1 0 0 1 92.0767 103.5649)" fill="#333333" font-family="'ArialMT'" font-size="14.04">i</text>
<text transform="matrix(1 0 0 1 95.1958 103.5649)" fill="#333333" font-family="'ArialMT'" font-size="14.04">t</text>
<text transform="matrix(1 0 0 1 99.1387 103.5649)" fill="#333333" font-family="'ArialMT'" font-size="14.04">l</text>
<text transform="matrix(1 0 0 1 102.2578 103.5649)" fill="#333333" font-family="'ArialMT'" font-size="14.04">e</text>
<path fill="#FFFFFF" stroke="#333333" stroke-width="2" stroke-linejoin="round" stroke-miterlimit="8" d="M137.998,95.63
	c0-11.15,14.47-20.19,32.31-20.19c17.85,0,32.32,9.04,32.32,20.19s-14.47,20.19-32.32,20.19
	C152.468,115.82,137.998,106.78,137.998,95.63z"/>
<text transform="matrix(1 0 0 1 156.7476 100.9951)" fill="#333333" font-family="'ArialMT'" font-size="14.04">y</text>
<text transform="matrix(1 0 0 1 163.585 100.9951)" fill="#333333" font-family="'ArialMT'" font-size="14.04">e</text>
<text transform="matrix(1 0 0 1 171.3936 100.9951)" fill="#333333" font-family="'ArialMT'" font-size="14.04">a</text>
<text transform="matrix(1 0 0 1 179.2017 100.9951)" fill="#333333" font-family="'ArialMT'" font-size="14.04">r</text>
<rect x="158.498" y="136.63" fill="#BA9BC9" stroke="#333333" stroke-width="2" stroke-miterlimit="10" width="69.75" height="59.875"/>
<text transform="matrix(1 0 0 1 164.9375 173.335)" fill="#333333" font-family="'ArialMT'" font-size="18">M</text>
<text transform="matrix(1 0 0 1 179.9316 173.335)" fill="#333333" font-family="'ArialMT'" font-size="18">o</text>
<text transform="matrix(1 0 0 1 189.9424 173.335)" fill="#333333" font-family="'ArialMT'" font-size="18">v</text>
<text transform="matrix(1 0 0 1 198.9424 173.335)" fill="#333333" font-family="'ArialMT'" font-size="18">i</text>
<text transform="matrix(1 0 0 1 202.8696 173.335)" fill="#333333" font-family="'ArialMT'" font-size="18">e</text>
<text transform="matrix(1 0 0 1 212.8804 173.335)" fill="#333333" font-family="'ArialMT'" font-size="18">s</text>
<path fill="#FFFFFF" stroke="#333333" stroke-width="2" stroke-linejoin="round" stroke-miterlimit="8" d="M588.498,95.63
	c0-11.15,14.469-20.19,32.309-20.19c17.852,0,32.32,9.04,32.32,20.19s-14.469,20.19-32.32,20.19
	C602.967,115.82,588.498,106.78,588.498,95.63z"/>
<text transform="matrix(1 0 0 1 595.9277 101.7651)" fill="#333333" font-family="'ArialMT'" font-size="14.064">a</text>
<text transform="matrix(1 0 0 1 603.748 101.7651)" fill="#333333" font-family="'ArialMT'" font-size="14.064">d</text>
<text transform="matrix(1 0 0 1 611.5703 101.7651)" fill="#333333" font-family="'ArialMT'" font-size="14.064">d</text>
<text transform="matrix(1 0 0 1 619.3359 101.7651)" fill="#333333" font-family="'ArialMT'" font-size="14.064">r</text>
<text transform="matrix(1 0 0 1 624.0195 101.7651)" fill="#333333" font-family="'ArialMT'" font-size="14.064">e</text>
<text transform="matrix(1 0 0 1 631.8418 101.7651)" fill="#333333" font-family="'ArialMT'" font-size="14.064">s</text>
<text transform="matrix(1 0 0 1 638.873 101.7651)" fill="#333333" font-family="'ArialMT'" font-size="14.064">s</text>
<g>
	
		<line fill="none" stroke="#333333" stroke-width="2" stroke-miterlimit="10" x1="194.627" y1="303.505" x2="194.627" y2="329.884"/>
	<g>
		<polygon fill="#333333" points="190.638,328.717 194.627,335.625 198.617,328.717 		"/>
	</g>
</g>
</svg>
